<?xml version="1.0" encoding="UTF-8"?>
<svg version="1.1" xmlns="http://www.w3.org/2000/svg" width="326" height="326">
<path d="M0 0 C0.66 0 1.32 0 2 0 C3.32774854 1.8564173 4.58509066 3.76326828 5.8125 5.6875 C14.29432106 18.3848474 25.37161449 27.61263151 38 36 C37.01 39.63 36.02 43.26 35 47 C35.86238281 47.24621094 36.72476563 47.49242187 37.61328125 47.74609375 C57.07157945 54.95037717 74.07025851 73.81054967 83 92 C90.03913729 108.68989654 90.65380356 128.01037236 84 145 C74.74098978 166.92332616 59.39458511 186.64529989 37 196 C36.34 196 35.68 196 35 196 C35.37253906 196.68707031 35.74507812 197.37414062 36.12890625 198.08203125 C36.60199219 198.98308594 37.07507813 199.88414062 37.5625 200.8125 C38.03816406 201.70582031 38.51382813 202.59914062 39.00390625 203.51953125 C40 206 40 206 39 209 C36.49975586 210.7175293 36.49975586 210.7175293 33.21484375 212.57421875 C32.63916153 212.90291458 32.06347931 213.23161041 31.47035217 213.57026672 C29.63081461 214.61797669 27.78438713 215.65281119 25.9375 216.6875 C24.68897843 217.3956481 23.44092525 218.10462269 22.19335938 218.81445312 C19.13502549 220.5542239 16.06770603 222.2764029 13 224 C13 229.94 13 235.88 13 242 C49.73332601 222.58074461 85.87492668 194.80159062 99.4140625 153.921875 C106.34419861 130.48904068 104.38216953 105.68408686 93 84 C88.1715044 76.01841352 82.15048913 69.93431988 75 64 C77.24896153 63.2302025 78.52720485 62.83531639 80.80834961 63.62988281 C81.41686768 63.98405273 82.02538574 64.33822266 82.65234375 64.703125 C83.34021973 65.10104248 84.0280957 65.49895996 84.73681641 65.90893555 C85.82615479 66.57276245 85.82615479 66.57276245 86.9375 67.25 C88.06551025 67.92639526 88.06551025 67.92639526 89.21630859 68.61645508 C96.44487599 73.06898902 102.77373424 78.25404617 109 84 C109.69609375 84.62648438 110.3921875 85.25296875 111.109375 85.8984375 C125.35275963 99.32251239 132.76763365 117.98111863 133.47314453 137.30639648 C133.93474047 180.38169007 108.03594109 217.90515876 83.89233398 251.47460938 C77.09413704 260.77458204 77.09413704 260.77458204 73.1875 271.5 C72.95417969 272.5415625 72.72085938 273.583125 72.48046875 274.65625 C72.32191406 275.4296875 72.16335937 276.203125 72 277 C71.01 277 70.02 277 69 277 C69 276.34 69 275.68 69 275 C68.46503906 274.78472656 67.93007812 274.56945312 67.37890625 274.34765625 C64.13061174 272.50748941 61.615906 270.00149174 58.9375 267.4375 C52.31907408 261.2107192 45.57733982 255.05155988 38 250 C34.00891686 250.32271134 31.23258663 251.83772488 27.875 253.9375 C27.02679688 254.46214844 26.17859375 254.98679688 25.3046875 255.52734375 C23.52378904 256.66530768 21.7584751 257.82768327 20 259 C21.14275391 259.43699219 21.14275391 259.43699219 22.30859375 259.8828125 C35.64892422 265.17897366 47.7891732 273.14591744 55 286 C56.52744622 290.58233867 56.77447996 294.41583644 54.625 298.8125 C51.64384061 302.82559918 51.64384061 302.82559918 49.08203125 303.51953125 C43.41041955 304.25166701 39.91902789 304.04979729 35 301 C32.10904616 296.43215878 31.66104454 292.97642634 31.8125 287.625 C31.85310547 285.75714844 31.85310547 285.75714844 31.89453125 283.8515625 C31.92933594 282.91054688 31.96414062 281.96953125 32 281 C30.19165095 280.05451801 28.37805217 279.11907546 26.5625 278.1875 C25.55316406 277.66542969 24.54382813 277.14335937 23.50390625 276.60546875 C19.42227549 274.73529011 15.27939405 273.33990298 11 272 C10.85477066 275.91627663 10.76595243 279.83186153 10.6875 283.75 C10.64560547 284.86117188 10.60371094 285.97234375 10.56054688 287.1171875 C10.23996596 293.45409959 10.23996596 293.45409959 13.40625 298.59375 C14.69015625 299.28984375 14.69015625 299.28984375 16 300 C18.95346569 304.48112035 19.91091741 308.708491 19 314 C17.07444187 319.36327772 14.03207174 322.27429447 9 325 C3.90197582 327.03920967 -1.60282313 326.44993831 -6.6875 324.8125 C-11.24698922 322.31768514 -15.39438403 319.10877808 -17 314 C-17.63377934 307.5565767 -16.73194389 304.28692051 -13 299 C-12.30165039 298.55358154 -11.60330078 298.10716309 -10.88378906 297.6472168 C-8.74910294 296.12709517 -8.74910294 296.12709517 -8.54589844 293.45629883 C-8.57731934 291.97166138 -8.57731934 291.97166138 -8.609375 290.45703125 C-8.62871094 288.84731445 -8.62871094 288.84731445 -8.6484375 287.20507812 C-8.68195313 286.08552734 -8.71546875 284.96597656 -8.75 283.8125 C-8.76804687 282.68134766 -8.78609375 281.55019531 -8.8046875 280.38476562 C-8.85187348 277.58899624 -8.91769405 274.79492028 -9 272 C-11.56489767 272.93132007 -14.12679206 273.86978507 -16.6875 274.8125 C-17.7693457 275.20405273 -17.7693457 275.20405273 -18.87304688 275.60351562 C-24.80626502 277.65199939 -24.80626502 277.65199939 -30 281 C-30.49388942 284.22621769 -30.49388942 284.22621769 -30.125 287.8125 C-29.76806897 293.18373625 -30.07045887 296.40411438 -33 301 C-37.78592653 303.96727445 -41.43475575 304.44175848 -46.98046875 303.58203125 C-49.87450762 302.74796589 -51.28031402 301.43622181 -53 299 C-54.53397953 294.39806141 -54.67660682 290.57664144 -52.74609375 286.078125 C-45.19185888 272.76103982 -32.88936158 264.4521295 -19 259 C-26.40022218 252.526286 -26.40022218 252.526286 -35.38671875 250.18359375 C-38.6212857 251.19409374 -40.18952631 252.65412567 -42.625 255 C-46.18850584 258.34608956 -49.80503851 261.51183631 -53.625 264.5625 C-57.85998739 267.96968533 -61.66486607 271.56795825 -65.34375 275.56640625 C-67 277 -67 277 -70 277 C-70.13535156 276.26136719 -70.27070312 275.52273438 -70.41015625 274.76171875 C-73.08360335 262.16289919 -80.52528731 253.24062877 -87.9519043 243.03662109 C-111.68475676 210.29159356 -136.02346573 169.77747617 -130.70703125 127.68017578 C-128.20702717 112.27356463 -121.51583172 99.54896606 -111 88 C-110.40960938 87.31679687 -109.81921875 86.63359375 -109.2109375 85.9296875 C-100.44615424 76.39267664 -87.73292218 68.32701639 -76 63 C-75.34 63 -74.68 63 -74 63 C-74 63.66 -74 64.32 -74 65 C-74.99 65.639375 -75.98 66.27875 -77 66.9375 C-90.8917918 76.5721298 -97.22366911 95.95124482 -100.5859375 111.75390625 C-104.03037181 138.75697145 -96.77667503 164.92839968 -80.25 186.5625 C-61.71720837 210.15033387 -37.79723911 228.60138045 -11 242 C-11 236.06 -11 230.12 -11 224 C-12.44632812 223.18015625 -13.89265625 222.3603125 -15.3828125 221.515625 C-17.29694083 220.42719909 -19.21099967 219.33865098 -21.125 218.25 C-22.07632813 217.71117187 -23.02765625 217.17234375 -24.0078125 216.6171875 C-28.78955287 213.89425201 -33.47768135 211.1366924 -38 208 C-36.41037341 203.96479403 -34.71767682 199.98188718 -33 196 C-34.216875 195.690625 -35.43375 195.38125 -36.6875 195.0625 C-55.90696121 188.59557437 -69.40590587 170.43085062 -78.3125 153.125 C-86.28204698 136.77248336 -89.43859014 117.71438648 -84.4375 99.875 C-83.68650408 97.89226683 -82.87341235 95.93193596 -82 94 C-81.53722656 92.95199219 -81.07445312 91.90398437 -80.59765625 90.82421875 C-71.1572743 71.55106733 -53.75141623 56.91521232 -35 47 C-34.34 47 -33.68 47 -33 47 C-33.99 43.37 -34.98 39.74 -36 36 C-34.98421875 35.27296875 -33.9684375 34.5459375 -32.921875 33.796875 C-20.36021581 24.67894872 -9.64420849 15.56641903 -1.5234375 2.203125 C-1.02070313 1.47609375 -0.51796875 0.7490625 0 0 Z M-51 79 C-58.13559421 86.73496346 -63.21835592 95.14921384 -67 105 C-67.39832031 106.02287109 -67.39832031 106.02287109 -67.8046875 107.06640625 C-72.01119627 120.40622517 -68.56759952 135.00080889 -62.42578125 147.1015625 C-53.31777946 162.17541161 -40.82065526 171.71090229 -25 179 C-21.94512185 170.14836536 -19.49398175 161.33200386 -17.75 152.125 C-17.50588379 150.84363159 -17.50588379 150.84363159 -17.25683594 149.53637695 C-12.16665495 121.5538905 -13.6523854 89.40804319 -25 63 C-33.66392531 63 -45.26985194 73.4058792 -51 79 Z M27 63 C23.81525138 71.49701375 21.43419109 79.89567919 19.75 88.8125 C19.58725586 89.67061279 19.42451172 90.52872559 19.25683594 91.4128418 C14.19481405 119.4124862 15.46920396 152.59075745 27 179 C44.86870876 170.88734537 59.94155543 158.99425068 67.48046875 140.3359375 C72.88180153 125.35766882 72.25403111 111.72175937 65.71484375 97.1328125 C57.6052466 81.18469109 45.00325834 70.44337597 29 63 C28.34 63 27.68 63 27 63 Z " fill="#939393" transform="translate(162,0)"/>
<path d="M0 0 C-1.28562206 2.82478464 -2.62726167 4.87596369 -4.828125 7.05859375 C-5.38113281 7.60966797 -5.93414062 8.16074219 -6.50390625 8.72851562 C-7.08011719 9.29248047 -7.65632813 9.85644531 -8.25 10.4375 C-8.81074219 10.99759766 -9.37148437 11.55769531 -9.94921875 12.13476562 C-13.48275246 15.6315767 -17.13831777 18.86969698 -21 22 C-19.55825395 17.440059 -16.97856437 14.41033341 -13.75 11 C-13.05197266 10.23816406 -13.05197266 10.23816406 -12.33984375 9.4609375 C-3.53389423 0 -3.53389423 0 0 0 Z " fill="#707070" transform="translate(108,61)"/>
<path d="M0 0 C5.49152542 0.61016949 5.49152542 0.61016949 7.875 2.4375 C9 4 9 4 9 6 C10.29233607 7.37310707 11.62437146 8.71034824 13 10 C12.67 10.66 12.34 11.32 12 12 C8 8 4 4 0 0 Z " fill="#5D5D5D" transform="translate(237,63)"/>
<path d="M0 0 C0 0.66 0 1.32 0 2 C-6.45 6.09326923 -6.45 6.09326923 -9.234375 5.62109375 C-9.81703125 5.41613281 -10.3996875 5.21117188 -11 5 C-9.54462432 4.16151196 -8.08559627 3.32936066 -6.625 2.5 C-5.81289062 2.0359375 -5.00078125 1.571875 -4.1640625 1.09375 C-2 0 -2 0 0 0 Z " fill="#5A5A5A" transform="translate(88,63)"/>
<path d="M0 0 C2.0625 0.4375 2.0625 0.4375 4 1 C1.03 3.475 1.03 3.475 -2 6 C-1.125 1.125 -1.125 1.125 0 0 Z " fill="#7C7C7C" transform="translate(150,298)"/>
</svg>
